<?xml version="1.0" encoding="UTF-8"?>
<!DOCTYPE svg PUBLIC "-//W3C//DTD SVG 1.1//EN" "http://www.w3.org/Graphics/SVG/1.1/DTD/svg11.dtd">
<!-- Creator: CorelDRAW 2019 (64-Bit) -->
<svg xmlns="http://www.w3.org/2000/svg" xml:space="preserve" width="300px" height="77px" version="1.1" style="shape-rendering:geometricPrecision; text-rendering:geometricPrecision; image-rendering:optimizeQuality; fill-rule:evenodd; clip-rule:evenodd"
viewBox="0 0 300 77"
 xmlns:xlink="http://www.w3.org/1999/xlink">
 <defs>
  <style type="text/css">
   <![CDATA[
    .str0 {stroke:black;stroke-width:0.9;stroke-miterlimit:22.9256}
    .fil0 {fill:black;fill-rule:nonzero}
   ]]>
  </style>
 </defs>
 <g id="图层_x0020_1">
  <metadata id="CorelCorpID_0Corel-Layer"/>
  <path class="fil0 str0" d="M88.58 36.66c3.42,0.1 5.99,1.16 7.73,3.2 1.73,2.04 2.6,3.83 2.6,5.39 0,1.56 -0.59,2.73 -1.77,3.51 -1.18,0.77 -2.83,1.09 -4.94,0.94 0,7.03 -0.83,12.11 -2.49,15.23 -1.66,3.11 -5.05,4.67 -10.18,4.67 -1.6,0 -2.95,-0.29 -4.03,-0.87 -1.08,-0.58 -2.25,-1.66 -3.5,-3.24 -1.26,-1.58 -3,-4.13 -5.21,-7.65 -1.6,-0.15 -3.19,-0.38 -4.75,-0.68 -0.65,3.52 -1.47,6.26 -2.45,8.22 -0.98,1.96 -1.94,2.94 -2.9,2.94 -0.65,0 -1.3,-0.4 -1.96,-1.21 -3.26,-3.92 -5.39,-6.38 -6.37,-7.39 -0.98,-1 -1.83,-1.64 -2.56,-1.92 -0.73,-0.27 -1.29,-0.85 -1.7,-1.73 -0.4,-0.88 -0.6,-1.92 -0.6,-3.13 0,-3.17 1.63,-6.53 4.9,-10.1 -1.36,-2.92 -2.04,-5.68 -2.04,-8.29 0,-2.62 0.62,-5.36 1.85,-8.22 1.23,-2.87 2.15,-4.3 2.75,-4.3 0.4,0 0.61,0.42 0.61,1.25 0,0.83 0.12,1.89 0.37,3.2 0.25,1.31 0.53,2.31 0.83,3.01 1.36,3.22 2.11,5.71 2.26,7.47 2.16,-1.26 3.55,-1.89 4.15,-1.89 0.2,0 0.3,0.1 0.3,0.31 0,0.2 -0.17,0.6 -0.53,1.2 -1.25,2.06 -1.91,4.22 -1.96,6.48 0.46,1.26 1.03,2.34 1.74,3.25 0.75,-6.04 1.63,-11.31 2.64,-15.84 -0.51,-1.95 -0.83,-3.39 -0.98,-4.29 -0.15,-0.91 -0.18,-1.36 -0.08,-1.36 0.2,0 0.7,1.23 1.51,3.7 1.35,-5.13 2.03,-8.95 2.03,-11.46 0,-0.91 -0.1,-1.6 -0.3,-2.08 -0.2,-0.47 -0.59,-0.94 -1.17,-1.39 -0.57,-0.45 -1.12,-0.68 -1.62,-0.68 -0.7,0 -1.24,0.35 -1.62,1.06 -0.37,0.7 -0.65,1.05 -0.83,1.05 -0.17,0 -0.26,-0.15 -0.26,-0.45 0,-0.3 0.23,-0.89 0.68,-1.77 0.45,-0.88 1.25,-1.32 2.41,-1.32 2.16,0 4.22,1.18 6.18,3.54 1.96,2.36 2.94,4.63 2.94,6.79 0,2.16 -0.45,4.42 -1.36,6.78 -2.61,6.83 -3.92,11.76 -3.92,14.78 0,1.96 0.46,4.19 1.36,6.71 4.78,-4.38 9.35,-7.8 13.72,-10.26 -0.9,-0.1 -1.52,-0.51 -1.85,-1.24 -0.32,-0.73 -0.49,-1.89 -0.49,-3.47 0,-1.58 0.22,-2.83 0.64,-3.73 0.43,-0.91 0.97,-1.56 1.63,-1.96 1.7,-0.96 3.09,-2.6 4.14,-4.94 1.06,-2.33 1.58,-4.23 1.58,-5.69 0,-0.5 -0.15,-0.75 -0.45,-0.75 -0.2,0 -0.8,0.41 -1.81,1.24 -1,0.83 -2.07,1.87 -3.2,3.13 -1.13,1.26 -2.5,1.88 -4.11,1.88l-1.66 -0.07c-0.95,0 -1.71,0.32 -2.26,0.98 -0.55,0.65 -0.89,0.98 -1.02,0.98 -0.12,0 -0.19,-0.05 -0.19,-0.15 0,-0.3 0.54,-1.45 1.63,-3.43 1.08,-1.99 2.28,-3.77 3.61,-5.35 1.34,-1.59 2.47,-2.63 3.4,-3.13 0.93,-0.51 1.92,-0.76 2.97,-0.76 2.22,0 4.26,0.88 6.15,2.64 1.88,1.76 2.82,3.72 2.82,5.88 0,1.51 -0.54,3.15 -1.62,4.94 -1.08,1.78 -2.55,3.81 -4.41,6.07 1.21,1.2 2.21,2.46 3.02,3.77zm-2.04 7.53c-0.5,-0.1 -0.95,-0.15 -1.35,-0.15 -1.01,0 -2.19,0.49 -3.55,1.47 -1.35,0.98 -2.03,1.57 -2.03,1.78 0,0.2 0.2,0.3 0.6,0.3 0.4,0 1.35,-0.14 2.83,-0.42 1.48,-0.27 2.47,-0.54 2.98,-0.79 0.5,-0.25 0.75,-0.55 0.75,-0.9 0,-0.35 -0.07,-0.78 -0.23,-1.29zm-29.17 9.2c-1.91,-1.71 -3.59,-3.47 -5.05,-5.28 -1.36,2.97 -2.04,5.18 -2.04,6.64 0,1.46 0.61,2.37 1.81,2.75 1.21,0.38 2.2,0.57 2.98,0.57 0.78,0 1.31,-0.38 1.58,-1.13 0.28,-0.76 0.52,-1.94 0.72,-3.55zm30.23 -3.99c-3.02,-0.76 -6.18,-1.13 -9.5,-1.13 -2.06,1.05 -3.48,1.73 -4.26,2.03 -0.78,0.3 -1.59,0.49 -2.45,0.57 -0.85,0.07 -1.57,0.39 -2.15,0.94 -0.57,0.55 -1.19,1.33 -1.84,2.34 0.3,1.1 0.45,2.08 0.45,2.94 0.8,1.55 2.34,2.97 4.6,4.26 2.26,1.28 4.19,1.92 5.8,1.92 2.92,0 5.22,-1.2 6.9,-3.58 1.68,-2.39 2.5,-5.82 2.45,-10.29zm55.84 -16.74c3.17,0.65 5.91,1.45 8.22,2.38 2.31,0.93 4.98,2.37 7.99,4.33 3.02,1.96 5.62,3.51 7.8,4.64 2.19,1.13 3.79,1.84 4.79,2.15 3.12,0.9 6.26,1.99 9.42,3.27 3.17,1.29 4.75,2.44 4.75,3.47 0,1.03 -1.89,1.85 -5.69,2.45 -3.79,0.6 -6.87,0.91 -9.23,0.91 -1.51,0 -2.92,-0.46 -4.22,-1.36 -1.31,-0.9 -3.74,-3.04 -7.28,-6.41 -3.54,-3.36 -6.28,-5.73 -8.22,-7.08 -1.93,-1.36 -3.78,-2.24 -5.54,-2.64 -1.76,-0.4 -4.42,-0.56 -7.99,-0.46 -1.05,1.36 -2.4,3.54 -4.03,6.53 -1.63,2.99 -3.05,5.79 -4.26,8.4 -0.4,0.86 -1.02,1.38 -1.85,1.58 -0.83,0.21 -2.14,0.31 -3.95,0.31 -1.81,0 -2.72,-1.06 -2.72,-3.17 0,-0.6 0.09,-1.11 0.27,-1.51 0.17,-0.4 0.35,-0.6 0.52,-0.6 0.18,0 0.33,0.05 0.46,0.15 0.12,0.1 0.36,0.15 0.71,0.15 0.35,0 0.92,-0.28 1.7,-0.83 0.78,-0.55 1.32,-1.13 1.62,-1.73 2.81,-5.48 5.19,-9.84 7.12,-13.08 1.94,-3.24 4.12,-6.36 6.56,-9.35 2.44,-2.99 3.66,-4.81 3.66,-5.47 0,-0.65 -0.33,-1.06 -0.98,-1.24 -0.66,-0.17 -0.98,-0.36 -0.98,-0.56 0,-0.21 0.55,-0.41 1.66,-0.61 1.1,-0.2 2.03,-0.3 2.78,-0.3 1.86,0 3.46,0.58 4.79,1.74 1.33,1.15 2,2.28 2,3.39 0,1.1 -0.43,1.93 -1.28,2.49 -3.07,1.91 -5.93,4.59 -8.6,8.06zm90.6 -0.45c9.4,-2.06 15.57,-3.09 18.51,-3.09 2.94,0 5,0.85 6.18,2.56 1.18,1.71 1.77,3.03 1.77,3.96 0,0.93 -0.34,1.71 -1.02,2.34 -0.68,0.62 -1.47,0.94 -2.37,0.94 -0.91,0 -1.79,-0.15 -2.64,-0.45 -4.02,-1.41 -7.58,-2.11 -10.67,-2.11 -3.09,0 -6.39,0.47 -9.91,1.43 0,5.27 0.2,10.75 0.6,16.43 0.41,5.68 0.61,8.85 0.61,9.5 0,2.91 -0.67,5.59 -2,8.03 -1.33,2.44 -2.24,3.65 -2.72,3.65 -0.47,0 -0.86,-0.37 -1.16,-1.13l-1.81 -4.6c-0.91,-2.31 -1.36,-3.86 -1.36,-4.67 0,-0.8 0.15,-1.63 0.45,-2.49 1.26,-3.77 1.89,-8.34 1.89,-13.72 0,-3.77 -0.35,-6.93 -1.06,-9.49 -4.32,1 -8.69,2.58 -13.11,4.74 -2.67,1.36 -4.54,2.04 -5.62,2.04 -1.08,0 -2.3,-0.58 -3.66,-1.73 -1.35,-1.16 -2.03,-2.1 -2.03,-2.83 0,-0.73 0.14,-1.52 0.41,-2.38 0.28,-0.85 0.59,-1.34 0.94,-1.47 0.36,-0.12 0.68,-0.18 0.98,-0.18 0.31,0 0.48,0.2 0.53,0.6 0.05,0.4 0.35,0.6 0.91,0.6 1.05,0 3.66,-0.59 7.84,-1.77 4.17,-1.18 8.31,-2.22 12.43,-3.13 -0.1,-1.51 -0.07,-2.91 0.08,-4.22 -1.91,0.86 -4,1.62 -6.26,2.3 -2.26,0.68 -3.5,1.02 -3.73,1.02 -0.22,0 -0.34,-0.08 -0.34,-0.23 0,-0.15 0.23,-0.32 0.68,-0.53 5.43,-2.41 8.8,-4.32 10.1,-5.73 0.3,-2.71 0.46,-5 0.46,-6.86 0,-1.86 -0.42,-3.28 -1.25,-4.26 -0.83,-0.97 -1.56,-2.31 -2.18,-3.99 -0.63,-1.68 -0.95,-3 -0.95,-3.96 0,-0.55 0.43,-0.83 1.28,-0.83 1.71,0 3.4,0.33 5.05,0.98 1.66,0.66 2.79,1.61 3.4,2.87 0.9,1.96 2.49,2.94 4.75,2.94 1.15,0 1.97,-0.12 2.45,-0.34 0.47,-0.23 0.95,-0.62 1.43,-1.17 0.48,-0.55 1.19,-0.83 2.15,-0.83 1.76,0 3.33,0.68 4.71,2.04 1.38,1.35 2.07,2.84 2.07,4.44 0,0.81 -0.21,1.49 -0.64,2.04 -0.43,0.55 -0.99,0.88 -1.7,0.98 -4.17,0.5 -7.21,1.12 -9.12,1.85 -1.91,0.72 -3.24,1.81 -3.99,3.24 -0.76,1.43 -1.21,3.65 -1.36,6.67zm10.63 13.27c1.96,0 3.68,0.68 5.16,2.03 1.49,1.36 2.23,2.87 2.23,4.52 0,0.66 -0.2,1.24 -0.61,1.74 -0.4,0.5 -1.46,0.75 -3.2,0.75 -1.73,0 -3.52,-0.32 -5.35,-0.98 -1.84,-0.65 -3.19,-1.47 -4.07,-2.45 -0.88,-0.98 -1.52,-1.47 -1.92,-1.47 -0.41,0 -0.81,0.1 -1.21,0.3 -0.4,0.2 -0.65,0.31 -0.75,0.31 -0.11,0 -0.16,-0.05 -0.16,-0.15 0,-0.26 0.37,-0.76 1.1,-1.51 0.73,-0.76 2.01,-1.46 3.84,-2.11 1.84,-0.66 3.48,-0.98 4.94,-0.98z"/>
 </g>
</svg>
