<?xml version="1.0" encoding="utf-8"?>
<!-- Generator: Adobe Illustrator 19.2.1, SVG Export Plug-In . SVG Version: 6.00 Build 0)  -->
<svg version="1.1" id="Layer_1" xmlns="http://www.w3.org/2000/svg" xmlns:xlink="http://www.w3.org/1999/xlink" x="0px" y="0px"
	 viewBox="0 0 52 52" style="enable-background:new 0 0 52 52;" xml:space="preserve">
<style type="text/css">
	.st0{fill:#010101;}
	.st1{fill:#6CC0EC;}
</style>
<g>
	<path class="st0" d="M21,32c-0.3,0-0.6-0.2-0.7-0.6c0-0.2-0.9-4,1.1-6.4c1.1-1.3,2.7-2,4.9-2c2.1,0,3.7,0.7,4.8,2
		c2,2.5,1.2,6.3,1.1,6.4c-0.1,0.4-0.5,0.7-0.9,0.6c-0.4-0.1-0.7-0.5-0.6-0.9c0,0,0.7-3.3-0.8-5.2c-0.8-0.9-2-1.4-3.6-1.4
		c-1.7,0-3,0.5-3.7,1.4c-1.5,1.9-0.8,5.1-0.8,5.2c0.1,0.4-0.2,0.8-0.6,0.9C21.1,32,21.1,32,21,32z"/>
</g>
<g>
	<g>
		<path class="st1" d="M44.9,43.6c0-0.2-0.1-0.5-0.1-0.7c-0.1-0.8-0.3-1.7-0.2-2.5c0-0.3,0.1-0.6,0.2-0.9c0.1-0.5,0.2-1,0.3-1.4
			c0.4-2,0.1-4.2-0.7-6c-0.6-1.3-1.4-2.5-1.5-3.9c0-0.9,0.3-1.8,0.3-2.7c0.1-2-1.2-3.5-1.4-5.4c0-0.3,0.8-3.7,1-3.7
			c-2.6,0-6.1-0.1-8.6-0.1c-0.6,2.8-0.9,5.8-0.3,8.6c0.2,1.2,0.6,2.4,0.9,3.6c0.3,1.5,0.1,2.7-0.3,4.1c-0.2,0.7-0.4,1.3-0.5,2
			c-0.3,2.3,1,4.5,1.4,6.7c0,0.1,0.1,0.3,0.1,0.5c0.1,1,0.1,2,0,3c-0.1,1.6-0.2,2.8-0.6,4.2c0,0.1-0.1,0.3-0.1,0.4
			c0,0.2,0.2,0.4,0.5,0.6C38.9,48.6,42.2,46.4,44.9,43.6z"/>
	</g>
</g>
<g>
	<g>
		<path class="st1" d="M7.1,43.6c0-0.2,0.1-0.5,0.1-0.7c0.1-0.8,0.3-1.7,0.2-2.5c0-0.3-0.1-0.6-0.2-0.9C7.2,39,7,38.5,6.9,38
			c-0.4-2-0.1-4.2,0.7-6c0.6-1.3,1.4-2.5,1.5-3.9c0-0.9-0.3-1.8-0.3-2.7c-0.1-2,1.2-3.5,1.4-5.4c0-0.3-0.9-3.7-1.1-3.7
			c2.6,0,6.1-0.1,8.7-0.1c0.6,2.8,0.9,5.8,0.3,8.6c-0.2,1.2-0.6,2.4-0.9,3.6c-0.3,1.5-0.1,2.7,0.3,4.1c0.2,0.7,0.4,1.3,0.5,2
			c0.3,2.3-1,4.5-1.4,6.7c0,0.1-0.1,0.3-0.1,0.5c-0.1,1-0.1,2,0,3c0.1,1.6,0.2,2.8,0.6,4.2c0,0.1,0.1,0.3,0.1,0.4
			c0,0.2-0.2,0.4-0.5,0.6C13.1,48.7,9.8,46.4,7.1,43.6z"/>
	</g>
</g>
<g>
	<path class="st0" d="M19.3,16.9H8.2c-0.4,0-0.8-0.3-0.8-0.8c0-0.4,0.3-0.7,0.8-0.7h11.1c0.4,0,0.8,0.3,0.8,0.7
		C20.1,16.6,19.7,16.9,19.3,16.9z"/>
</g>
<g>
	<path class="st0" d="M45.1,16.9H34c-0.4,0-0.8-0.3-0.8-0.8c0-0.4,0.3-0.7,0.8-0.7h11.1c0.4,0,0.8,0.3,0.8,0.7
		C45.8,16.6,45.5,16.9,45.1,16.9z"/>
</g>
</svg>
