<?xml version="1.0" encoding="utf-8"?>
<!-- Generator: Adobe Illustrator 19.2.1, SVG Export Plug-In . SVG Version: 6.00 Build 0)  -->
<svg version="1.1" id="Layer_1" xmlns="http://www.w3.org/2000/svg" xmlns:xlink="http://www.w3.org/1999/xlink" x="0px" y="0px"
	 viewBox="0 0 52 52" style="enable-background:new 0 0 52 52;" xml:space="preserve">
<style type="text/css">
	.st0{fill:#010101;}
	.st1{fill:#FFFFFF;}
</style>
<g>
	<circle class="st0" cx="10.1" cy="27.6" r="4.1"/>
</g>
<g>
	<circle class="st1" cx="11.8" cy="25.3" r="0.8"/>
</g>
<g>
	<circle class="st0" cx="41.2" cy="27.6" r="4.1"/>
</g>
<g>
	<circle class="st1" cx="39.5" cy="28.4" r="1.6"/>
</g>
<g>
	<circle class="st1" cx="8.4" cy="28.4" r="1.6"/>
</g>
<g>
	<circle class="st1" cx="42.9" cy="25.3" r="0.8"/>
</g>
<g>
	<path class="st0" d="M32,37.3c-1.3,0-2.1-0.8-2.9-1.6s-1.6-1.6-3.1-1.6c-0.7,0-1.4,0.6-2.2,1.3c-1,0.9-2.2,1.9-3.8,1.8
		c-2.8-0.2-4.6-2.5-4.7-2.6c-0.3-0.3-0.2-0.8,0.1-1.1s0.8-0.2,1.1,0.1c0,0,1.5,1.9,3.6,2c1,0,1.8-0.7,2.7-1.4
		c0.9-0.8,1.9-1.6,3.2-1.6c2.1,0,3.2,1.1,4.1,2.1c0.7,0.7,1.2,1.2,1.8,1.2c1.9,0,3.5-2.2,3.5-2.2c0.2-0.3,0.7-0.4,1-0.2
		s0.4,0.7,0.2,1C36.6,34.6,34.6,37.3,32,37.3z"/>
</g>
</svg>
