<?xml version="1.0" encoding="utf-8"?>
<!-- Generator: Adobe Illustrator 19.2.1, SVG Export Plug-In . SVG Version: 6.00 Build 0)  -->
<svg version="1.1" id="Layer_1" xmlns="http://www.w3.org/2000/svg" xmlns:xlink="http://www.w3.org/1999/xlink" x="0px" y="0px"
	 viewBox="0 0 200 200" style="enable-background:new 0 0 200 200;" xml:space="preserve">
<style type="text/css">
	.st0{fill:#010101;}
</style>
<path class="st0" d="M129.4,50.8c-11.9,0-23,8.3-29.4,14.2C93.6,59,82.5,50.8,70.6,50.8c-22.2,0-36,13.4-36,35
	c0,18,16.7,32.9,16.8,33l43.8,42c1.3,1.2,3,1.9,4.8,1.9c1.8,0,3.5-0.7,4.7-1.9l43.9-42c3.9-3.7,16.7-17.1,16.7-33
	C165.3,64.2,151.6,50.8,129.4,50.8z M48.4,85.8c0-14.2,7.5-21.3,22.2-21.3c6.9,0,14.7,5.7,19.8,10.3l9.9,22.7l-15.3,12.8
	c-2.1,1.7-2.8,4.6-1.8,7.1l8,20.4l-30.3-29C59.5,107.6,48.4,96.8,48.4,85.8z M139.2,108.8l-33.4,32L96.5,117l15.4-12.9
	c2.1-1.8,2.8-4.8,1.7-7.3l-7.9-18.2c3.8-4.2,14.5-14.1,23.6-14.1c14.8,0,22.2,7.2,22.2,21.3C151.6,96.8,140.5,107.7,139.2,108.8z"/>
</svg>
