<?xml version="1.0" encoding="utf-8"?>
<!-- Generator: Adobe Illustrator 19.2.1, SVG Export Plug-In . SVG Version: 6.00 Build 0)  -->
<svg version="1.1" id="Layer_1" xmlns="http://www.w3.org/2000/svg" xmlns:xlink="http://www.w3.org/1999/xlink" x="0px" y="0px"
	 viewBox="0 0 52 52" style="enable-background:new 0 0 52 52;" xml:space="preserve">
<style type="text/css">
	.st0{fill:#FFFFFF;}
	.st1{fill:#010101;}
</style>
<g>
	<path class="st0" d="M7,26.8L7,26.8c0-0.9,0.7-1.6,1.6-1.6h10.5c0.9,0,1.8,0.7,1.8,1.6v0c0,0.9-0.7,1.6-1.6,1.6l-10.4,0
		C8,28.4,7,27.7,7,26.8z"/>
	<path class="st1" d="M19.3,29.1H8.9c-1.2,0-2.6-1-2.6-2.3c0-1.3,1-2.3,2.3-2.3h10.5c1.2,0,2.5,0.9,2.5,2.3
		C21.6,28.1,20.6,29.1,19.3,29.1z M8.6,26c-0.4,0-0.8,0.4-0.8,0.8c0,0.4,0.6,0.8,1.1,0.8h10.4c0.4,0,0.8-0.4,0.8-0.8
		c0-0.4-0.5-0.8-1-0.8H8.6z"/>
</g>
<g>
	<path class="st0" d="M15.9,40.3c-0.5,2.8,1.8,2.5,4,1.9c0.1,0,0.3-0.1,0.4-0.1c0.7,0,3-0.2,5.6-0.1c2.8,0.1,5.9,0.8,7.2,0.9
		c2.7,0.3,3.1-1.6,2.9-2.5c-0.3-0.8-0.9-1.6-2.8-2.1c-1.3-0.4-9.6-1.6-14.4-0.1C18.3,38.4,16.2,39.2,15.9,40.3z"/>
	<path class="st1" d="M33.7,43.8c-0.2,0-0.5,0-0.7,0c-0.4,0-0.9-0.1-1.5-0.2c-1.6-0.3-3.7-0.6-5.6-0.7c-2.6-0.1-4.8,0.1-5.5,0.1
		c-0.1,0-0.2,0-0.3,0c-1.7,0.4-3.4,0.7-4.4-0.2c-0.6-0.6-0.8-1.4-0.5-2.6l0,0c0.3-1.5,2.5-2.3,3.4-2.6c4.9-1.5,13.3-0.3,14.8,0.1
		c1.9,0.6,2.9,1.4,3.3,2.6c0.2,0.7,0.1,1.7-0.5,2.5C35.7,43.3,35,43.8,33.7,43.8z M24.2,41.3c0.6,0,1.1,0,1.8,0
		c2.1,0.1,4.3,0.4,5.9,0.7c0.6,0.1,1.1,0.2,1.4,0.2c0.6,0.1,1.4,0.1,1.8-0.4c0.3-0.4,0.3-0.9,0.2-1.1c-0.1-0.5-0.5-1.1-2.2-1.6
		c-1.4-0.4-9.4-1.5-14-0.1c-1.2,0.4-2.3,1-2.3,1.5c-0.1,0.6-0.1,1,0.1,1.2c0.3,0.3,1.3,0.3,3-0.1c0.2,0,0.4-0.1,0.5-0.1
		C20.9,41.4,22.4,41.3,24.2,41.3z"/>
</g>
<g>
	<path class="st0" d="M30.6,26.8L30.6,26.8c0-0.9,0.7-1.6,1.6-1.6h10.5c0.9,0,1.7,0.7,1.7,1.6v0c0,0.9-0.7,1.6-1.6,1.6H32.6
		C31.7,28.4,30.6,27.7,30.6,26.8z"/>
	<path class="st1" d="M42.9,29.1H32.6c-1.2,0-2.7-1-2.7-2.3c0-1.3,1-2.3,2.3-2.3h10.5c1.3,0,2.5,1.1,2.5,2.3
		C45.2,28.1,44.1,29.1,42.9,29.1z M32.2,26c-0.4,0-0.8,0.4-0.8,0.8c0,0.4,0.7,0.8,1.2,0.8h10.3c0.4,0,0.8-0.4,0.8-0.8
		c0-0.4-0.5-0.8-1-0.8H32.2z"/>
</g>
<g>
	<ellipse transform="matrix(0.4279 -0.9038 0.9038 0.4279 -13.5076 31.6479)" class="st1" cx="18.2" cy="26.5" rx="1.4" ry="2"/>
</g>
<g>
	<ellipse transform="matrix(0.4279 -0.9038 0.9038 0.4279 0.3428 53.5284)" class="st1" cx="42.5" cy="26.5" rx="1.4" ry="2"/>
</g>
<g>
	<path class="st1" d="M29.1,42.9c-0.4,0-0.8-0.3-0.8-0.8v-3.7c0-0.4,0.3-0.8,0.8-0.8s0.8,0.3,0.8,0.8v3.7
		C29.8,42.6,29.5,42.9,29.1,42.9z"/>
</g>
<g>
	<path class="st1" d="M22.2,42.5c-0.4,0-0.8-0.3-0.8-0.8v-3.2c0-0.4,0.3-0.8,0.8-0.8s0.8,0.3,0.8,0.8v3.2
		C23,42.2,22.7,42.5,22.2,42.5z"/>
</g>
</svg>
