<?xml version="1.0" encoding="utf-8"?>
<!-- Generator: Adobe Illustrator 19.2.1, SVG Export Plug-In . SVG Version: 6.00 Build 0)  -->
<svg version="1.1" id="Layer_1" xmlns="http://www.w3.org/2000/svg" xmlns:xlink="http://www.w3.org/1999/xlink" x="0px" y="0px"
	 viewBox="0 0 200 200" style="enable-background:new 0 0 200 200;" xml:space="preserve">
<style type="text/css">
	.st0{fill:#ffffff;}
</style>
<path class="st0" d="M131.6,46.5c-12.8,0-24.7,8.9-31.6,15.2c-6.9-6.4-18.8-15.2-31.6-15.2c-23.9,0-38.7,14.4-38.7,37.7
	c0,19.4,17.9,35.4,18,35.5l47.2,45.2c1.4,1.3,3.2,2.1,5.1,2.1c1.9,0,3.8-0.7,5.1-2.1l47.3-45.2c4.2-4,18-18.4,18-35.5
	C170.3,61,155.5,46.5,131.6,46.5z M142.2,109L100,149.4l-42.3-40.4c-1.4-1.3-13.3-12.9-13.3-24.7c0-15.2,8.1-23,23.9-23
	c10.3,0,22.5,11.7,26,15.8c1.4,1.6,3.4,2.5,5.7,2.5c0,0,0,0,0,0c2.2,0,4.3-0.9,5.6-2.5c3.5-4.1,15.7-15.8,26-15.8
	c15.9,0,23.9,7.7,23.9,23C155.6,96.1,143.6,107.7,142.2,109z M143.9,110.9L143.9,110.9L143.9,110.9L143.9,110.9z"/>
</svg>
