<?xml version="1.0" encoding="utf-8"?>
<!-- Generator: Adobe Illustrator 19.2.1, SVG Export Plug-In . SVG Version: 6.00 Build 0)  -->
<svg version="1.1" id="Layer_1" xmlns="http://www.w3.org/2000/svg" xmlns:xlink="http://www.w3.org/1999/xlink" x="0px" y="0px"
	 viewBox="0 0 52 52" style="enable-background:new 0 0 52 52;" xml:space="preserve">
<style type="text/css">
	.st0{fill:#010101;}
	.st1{fill:#FFFFFF;}
	.st2{fill:#6CC0EC;}
</style>
<g>
	<path class="st0" d="M26.5,49c10.8-0.1,15.8-9.1,17.3-14.8c1.3-5-0.1-9.2-0.4-9.9c-0.2-0.5-8.9-1.2-17.6-1.3
		C13,22.8,8.6,23.4,8.1,23.9c-1,1.1-1.1,3.5,0.3,9.7C9.8,39.7,16.4,49.1,26.5,49z"/>
	<path class="st0" d="M26.4,49.5c-10.1,0-17-9.4-18.5-15.7c-1.4-6.1-1.5-8.9-0.2-10.2c1-1.1,10.4-1.2,18.1-1.1
		c0.2,0,17.5,0.3,18.1,1.6c0.5,1.2,1.6,5.5,0.4,10.2c-0.7,2.5-4.6,15.1-17.8,15.2l0,0C26.5,49.5,26.5,49.5,26.4,49.5z M22,23.5
		c-12.2,0-13.4,0.8-13.5,0.8c-0.9,1-0.8,3.8,0.4,9.3c1.4,6,7.9,15,17.5,15c0,0,0.1,0,0.1,0l0,0C39,48.4,42.7,36.5,43.3,34.1
		c1.2-4.7,0-8.6-0.3-9.4c-1.2-0.4-9-1.1-17.2-1.2C24.4,23.5,23.1,23.5,22,23.5z"/>
</g>
<g>
	<path class="st1" d="M26.3,47.5c-4.7,0-10.7-2.9-10.2-6.4c0.6-3.6,3.2-5.3,9.8-5.3c9,0,10.8,3.2,10.6,7.1
		C36.4,45.3,32.6,47.5,26.3,47.5z"/>
</g>
<g>
	<path class="st0" d="M9.3,20c-0.3,0-0.6-0.2-0.7-0.5c-0.1-0.4,0.1-0.8,0.5-0.9l2.6-0.9l-3-0.9c-0.4-0.1-0.6-0.5-0.5-0.9
		c0.1-0.4,0.5-0.6,0.9-0.5l4,1.2c0.9,0.3,1.1,0.8,1.1,1.1c0,0.3-0.1,0.8-1,1.1L9.6,20C9.5,20,9.4,20,9.3,20z M13,18L13,18L13,18z"/>
</g>
<g>
	<path class="st0" d="M42.5,20c-0.1,0-0.2,0-0.2,0l-3.7-1.2c-0.9-0.3-1-0.8-1-1.1c0-0.3,0.2-0.8,1.1-1.1l4-1.2
		c0.4-0.1,0.8,0.1,0.9,0.5c0.1,0.4-0.1,0.8-0.5,0.9l-3,0.9l2.6,0.9c0.4,0.1,0.6,0.6,0.5,0.9C43.1,19.8,42.8,20,42.5,20z"/>
</g>
<g>
	<path class="st2" d="M8.9,30C9,29.9,9,29.8,9.1,29.7c0.9-2.8,1.2-5.8,0.7-8.7c-0.1-0.4-0.6-0.7-0.9-0.4c-1.5,1-4.4,3.1-6,5.7
		c-0.1,0.2-0.2,0.4-0.3,0.6l0,0.1c-0.1,0.1,0,0.1-0.1,0.2c-0.1,0.2-0.2,0.5-0.1,0.7c-0.2,1.5,0.6,3,2,3.7C6,32.4,8.1,31.7,8.9,30z"
		/>
</g>
<g>
	<path class="st2" d="M42.9,30.1c0.8,1.6,2.9,2.2,4.6,1.5c1.5-0.7,2.2-2.2,2-3.7c0-0.2,0-0.5-0.1-0.7c-0.1-0.1,0-0.1-0.1-0.2l0-0.1
		c-0.1-0.2-0.2-0.4-0.3-0.6c-1.6-2.6-4.5-4.8-6-5.7c-0.3-0.2-0.9,0-0.9,0.4c-0.4,2.9-0.2,5.9,0.7,8.7C42.8,29.8,42.9,30,42.9,30.1z"
		/>
</g>
</svg>
