<?xml version="1.0" encoding="utf-8"?>
<!-- Generator: Adobe Illustrator 19.2.1, SVG Export Plug-In . SVG Version: 6.00 Build 0)  -->
<svg version="1.1" id="Layer_1" xmlns="http://www.w3.org/2000/svg" xmlns:xlink="http://www.w3.org/1999/xlink" x="0px" y="0px"
	 viewBox="0 0 52 52" style="enable-background:new 0 0 52 52;" xml:space="preserve" class="st10">
<style type="text/css">
	.st0{fill:#FFFFFF;}
	.st1{fill:#010101;}
</style>
<g>
	<path class="st0" d="M21.4,22.5c-0.4-1.5-1.9-3-3.5-3c-1.4,0-2.7,0.9-3.5,1.8c-0.1,0.1-0.3,0.2-0.5,0.2c-0.2,0-0.3-0.1-0.5-0.2
		c-0.8-0.9-2.2-1.8-3.5-1.8c-1.7,0-3.1,1.5-3.5,3C5.6,25,8,27.7,9.6,29.3c0.8,0.7,3.2,2.4,4.2,2.8c0.9-0.4,3.4-2.1,4.2-2.8
		C19.6,27.7,22.1,25,21.4,22.5z"/>
	<path class="st1" d="M13.8,32.8c-0.1,0-0.2,0-0.3-0.1c-1.1-0.4-3.6-2.2-4.4-3c-1.9-1.9-4.4-4.7-3.6-7.5c0.5-1.8,2.2-3.6,4.3-3.6
		c0,0,0,0,0,0c1.6,0,3.1,1,4,2c0.8-0.9,2.3-2,4-2c0,0,0,0,0,0c2,0,3.8,1.8,4.3,3.6l0,0c0.8,2.8-1.6,5.6-3.6,7.5
		c-0.8,0.8-3.3,2.5-4.4,3C14,32.8,13.9,32.8,13.8,32.8z M9.8,20.2c-1.3,0-2.5,1.3-2.8,2.5c-0.6,2.1,1.5,4.4,3.2,6
		c0.6,0.6,2.7,2,3.7,2.5c1-0.5,3-1.9,3.7-2.5c1.6-1.6,3.7-4,3.2-6c-0.3-1.2-1.5-2.5-2.8-2.5c0,0,0,0,0,0c-1.1,0-2.3,0.8-3,1.6
		c-0.3,0.3-0.6,0.4-1,0.5c-0.4,0-0.8-0.2-1-0.5C12.1,21,10.9,20.2,9.8,20.2C9.8,20.2,9.8,20.2,9.8,20.2z"/>
</g>
<g>
	<path class="st0" d="M45.9,22.5c-0.4-1.5-1.9-3-3.5-3c-1.4,0-2.7,0.9-3.5,1.8c-0.1,0.1-0.3,0.2-0.5,0.2c-0.2,0-0.3-0.1-0.5-0.2
		c-0.8-0.9-2.2-1.8-3.5-1.8c-1.7,0-3.1,1.5-3.5,3c-0.7,2.5,1.7,5.2,3.4,6.8c0.8,0.7,3.2,2.4,4.2,2.8c0.9-0.4,3.4-2.1,4.2-2.8
		C44.1,27.7,46.6,25,45.9,22.5z"/>
	<path class="st1" d="M38.3,32.8c-0.1,0-0.2,0-0.3-0.1c-1.1-0.4-3.6-2.2-4.4-3c-1.9-1.9-4.4-4.7-3.6-7.5c0.5-1.8,2.2-3.6,4.3-3.6
		c0,0,0,0,0,0c1.6,0,3.1,1,4,2c0.8-0.9,2.3-2,4-2c0,0,0,0,0,0c2,0,3.8,1.8,4.3,3.6l0,0c0.8,2.8-1.6,5.6-3.6,7.5
		c-0.8,0.8-3.3,2.5-4.4,3C38.5,32.8,38.4,32.8,38.3,32.8z M34.3,20.2c-1.3,0-2.5,1.3-2.8,2.5c-0.6,2.1,1.5,4.4,3.2,6
		c0.6,0.6,2.7,2,3.7,2.5c1-0.5,3-1.9,3.7-2.5c1.6-1.6,3.7-4,3.2-6c-0.3-1.2-1.5-2.5-2.8-2.5c0,0,0,0,0,0c-1.1,0-2.3,0.8-3,1.6
		c-0.3,0.3-0.6,0.4-1,0.5c-0.4,0-0.8-0.2-1-0.5C36.6,21,35.4,20.2,34.3,20.2C34.3,20.2,34.3,20.2,34.3,20.2z"/>
</g>
<g>
	<path class="st1" d="M30.9,38.9c-1.2,0-3.3-1-3.7-1.2c-0.4-0.2-0.5-0.6-0.3-1c0.2-0.4,0.6-0.5,1-0.3c1.1,0.5,2.6,1.1,3.1,1.1
		c0.3,0,0.6-0.2,0.8-0.5c0.1-0.2,0.3-0.5,0.2-1c-0.2-0.6-1.3-0.8-1.7-0.9c-0.3,0-0.6-0.3-0.7-0.6c-0.1-0.3,0.1-0.7,0.4-0.8
		c0,0,0.8-0.5,1.1-0.6c0.3-0.2,0.2-0.5,0.2-0.6c0-0.1-0.2-0.4-0.6-0.3c-0.6,0.1-1.6,0.4-1.6,0.4c-0.4,0.1-0.8-0.1-0.9-0.5
		c-0.1-0.4,0.1-0.8,0.5-0.9c0,0,1.1-0.3,1.7-0.5c1-0.2,2,0.3,2.4,1.3c0.3,0.8,0.1,1.6-0.5,2.2c0.6,0.3,1,0.7,1.3,1.4
		c0.2,0.8,0.1,1.6-0.3,2.3c-0.5,0.7-1.2,1.1-1.9,1.2C31.1,38.9,31,38.9,30.9,38.9z"/>
</g>
</svg>
