<?xml version="1.0" encoding="utf-8"?>
<!-- Generator: Adobe Illustrator 19.2.1, SVG Export Plug-In . SVG Version: 6.00 Build 0)  -->
<svg version="1.1" id="Layer_1" xmlns="http://www.w3.org/2000/svg" xmlns:xlink="http://www.w3.org/1999/xlink" x="0px" y="0px"
	 viewBox="0 0 52 52" style="enable-background:new 0 0 52 52;" xml:space="preserve">
<style type="text/css">
	.st0{fill:#010101;}
	.st1{fill:#FFFFFF;}
</style>
<g>
	<path class="st0" d="M25.6,29.2c5.5,0,5.6,5.6,5.7,12.8c0,4.4-2.5,6.4-5.3,6.4c-3.4,0-5-3.2-5.2-8.2C20.7,35.2,20.5,29.2,25.6,29.2
		z"/>
	<path class="st0" d="M26,48.9c-3.5,0-5.5-3.1-5.7-8.6c-0.1-3.8-0.2-8.1,1.9-10.3c0.8-0.9,2-1.3,3.4-1.3c6,0,6.1,6.2,6.2,13.3
		c0,2.3-0.6,4.1-1.8,5.4C28.9,48.4,27.5,48.9,26,48.9z M25.6,29.7c-1.1,0-2,0.3-2.7,1c-1.8,1.9-1.7,6-1.6,9.6c0.1,3.5,1,7.7,4.7,7.7
		c1.3,0,2.4-0.4,3.2-1.3c1-1,1.6-2.6,1.5-4.6C30.7,34.1,30.4,29.7,25.6,29.7z"/>
</g>
<g>
	<path class="st1" d="M26.3,47.4c-2,0.2-3.9,0.3-4.2-4.2c-0.2-4.9,2.3-6.1,3.3-6.2c1.8-0.2,4.2,1,4.5,6.5
		C30.1,47,27.5,47.3,26.3,47.4z"/>
</g>
<g>
	<circle class="st0" cx="9.3" cy="28.3" r="2.1"/>
</g>
<g>
	<circle class="st0" cx="43.5" cy="28.3" r="2.1"/>
</g>
</svg>
