<?xml version="1.0" encoding="utf-8"?>
<!-- Generator: Adobe Illustrator 19.2.1, SVG Export Plug-In . SVG Version: 6.00 Build 0)  -->
<svg version="1.1" id="Layer_1" xmlns="http://www.w3.org/2000/svg" xmlns:xlink="http://www.w3.org/1999/xlink" x="0px" y="0px"
	 viewBox="0 0 52 52" style="enable-background:new 0 0 52 52;" xml:space="preserve">
<style type="text/css">
	.st0{fill:#010101;}
</style>
<g>
	<path class="st0" d="M45.6,25.9l-19.4,0l0,0H26h-0.2l0,0l-19.4,0c-0.5,0-0.8,0.6-0.7,1.1c0.7,2.7,2.2,8.4,7.8,8.4
		c5.3,0,8.6-6,9.5-7.4c0.1-0.2,0.3-0.4,0.6-0.4h2.4h0.4h2.4c0.2,0,0.4,0.1,0.6,0.4c0.8,1.4,4.1,7.4,9.5,7.4c5.5,0,7.1-5.7,7.8-8.4
		C46.5,26.5,46.1,25.9,45.6,25.9z"/>
</g>
<g>
	<path class="st0" d="M34.4,44.6c-1.2,0-2.2-0.3-3.1-1c-0.3-0.3-0.4-0.7-0.1-1.1c0.3-0.3,0.7-0.4,1.1-0.1c0.6,0.4,1.3,0.7,2.2,0.7
		c3.1,0,3.7-3.5,3.7-3.7c0.1-0.4,0.4-0.7,0.9-0.6c0.4,0.1,0.7,0.4,0.6,0.8C39.4,41.4,38,44.6,34.4,44.6z"/>
</g>
</svg>
