<?xml version="1.0" encoding="utf-8"?>
<!-- Generator: Adobe Illustrator 19.2.1, SVG Export Plug-In . SVG Version: 6.00 Build 0)  -->
<svg version="1.1" id="Layer_1" xmlns="http://www.w3.org/2000/svg" xmlns:xlink="http://www.w3.org/1999/xlink" x="0px" y="0px"
	 viewBox="0 0 52 52" style="enable-background:new 0 0 52 52;" xml:space="preserve">
<style type="text/css">
	.st0{fill:#010101;}
	.st1{fill:#FFFFFF;}
</style>
<g>
	<path class="st0" d="M33.3,36.7c5.6-2.3,5.2-5.6,3.2-7.4c-1.4-1.3-4.5-2.3-9.8-2.3c-7.7,0-13.7,6-9.4,5.9
		C26.7,32.9,27.2,39.3,33.3,36.7z"/>
	<path class="st0" d="M30.6,37.8c-1.7,0-3.1-0.8-4.5-1.7c-2-1.2-4.3-2.6-8.8-2.6c-0.9,0-1.5-0.2-1.8-0.7c-0.2-0.3-0.3-0.8,0.1-1.5
		c1.1-1.9,5.7-4.7,11-4.7c0,0,0,0,0,0c6.2,0,8.9,1.3,10.1,2.4c1.2,1,1.7,2.4,1.5,3.7c-0.2,1.2-1.2,3-4.8,4.5
		C32.4,37.6,31.5,37.8,30.6,37.8z M17.6,32.5c4.6,0,7.1,1.5,9.1,2.8c2.1,1.3,3.6,2.2,6.5,1l0,0c2.5-1,4-2.3,4.2-3.8
		c0.2-1-0.3-2-1.2-2.8c-0.9-0.8-3.3-2.1-9.5-2.1c0,0,0,0,0,0c-5.2,0-9.3,2.7-10.2,4.2c-0.1,0.3-0.2,0.4-0.1,0.5
		c0,0.1,0.3,0.2,0.9,0.2C17.4,32.5,17.5,32.5,17.6,32.5z"/>
</g>
<g>
	<path class="st1" d="M33.7,35.8c2.1-1.4,2.5-1.4,2.2-2.6c-0.6-1.8-2.6-1.2-4.7-1.4c-2.6-0.2-7.5,1.9-4.6,3.5
		C28.2,36.3,30.9,37.7,33.7,35.8z"/>
</g>
<g>
	<g>
		<path class="st0" d="M8.4,21.8c0-0.9,0.5-1.6,1.5-2.2c0.3-0.1,0.5-0.3,0.7-0.4c0.2-0.2,0.4-0.3,0.4-0.6c0-0.2-0.2-0.5-0.8-0.5
			c-0.3,0-0.6,0.1-0.9,0.2c-0.6,0.2-1.3-0.2-1.3-0.9v0c0-0.4,0.2-0.7,0.5-0.9c0.5-0.3,1.1-0.4,1.8-0.4c0.9,0,1.6,0.2,2.1,0.7
			c0.5,0.5,0.8,1,0.8,1.6c0,0.6-0.1,1.1-0.4,1.5c-0.3,0.4-0.7,0.7-1.4,1.1c-0.2,0.1-0.4,0.2-0.5,0.2c-0.2,0.1-0.4,0.3-0.4,0.6
			c0,0.3,0.2,0.5,0.6,0.5s0.8-0.1,1.1-0.3v1c0,0.5-0.3,0.9-0.8,1c-0.2,0-0.5,0.1-0.7,0.1C9.3,24,8.4,23.1,8.4,21.8z M10.4,24.4
			c0.6,0,1.2,0.5,1.2,1.1c0,0.6-0.5,1.1-1.2,1.1c-0.6,0-1.2-0.5-1.2-1.1C9.2,24.9,9.8,24.4,10.4,24.4z"/>
	</g>
</g>
<g>
	<g>
		<path class="st0" d="M39.4,21.8c0-0.9,0.5-1.6,1.5-2.2c0.3-0.1,0.5-0.3,0.7-0.4c0.2-0.2,0.4-0.3,0.4-0.6c0-0.2-0.2-0.5-0.8-0.5
			c-0.3,0-0.6,0.1-0.9,0.2c-0.6,0.2-1.3-0.2-1.3-0.9v0c0-0.4,0.2-0.7,0.5-0.9c0.5-0.3,1.1-0.4,1.8-0.4c0.9,0,1.6,0.2,2.1,0.7
			c0.5,0.5,0.8,1,0.8,1.6c0,0.6-0.1,1.1-0.4,1.5c-0.3,0.4-0.7,0.7-1.4,1.1c-0.2,0.1-0.4,0.2-0.5,0.2c-0.2,0.1-0.4,0.3-0.4,0.6
			c0,0.3,0.2,0.5,0.6,0.5s0.8-0.1,1.1-0.3v1c0,0.5-0.3,0.9-0.8,1c-0.2,0-0.5,0.1-0.7,0.1C40.3,24,39.4,23.1,39.4,21.8z M41.4,24.4
			c0.6,0,1.2,0.5,1.2,1.1c0,0.6-0.5,1.1-1.2,1.1c-0.6,0-1.2-0.5-1.2-1.1C40.2,24.9,40.8,24.4,41.4,24.4z"/>
	</g>
</g>
</svg>
